<svg width="234" height="92" viewBox="0 0 234 92" fill="none" xmlns="http://www.w3.org/2000/svg">
<path d="M96.5714 13.3471L96.0637 12.4855L96.5714 13.3471ZM87.2857 89.7447L87.1026 90.7278L87.2857 89.7447ZM3 71.6099L11.3196 63.6026L0.225236 60.4012L3 71.6099ZM233.768 77.9146C220.15 61.5893 196.964 38.7219 171.63 23.1731C146.363 7.66516 118.581 -0.783689 96.0637 12.4855L97.0791 14.2086C118.562 1.54897 145.422 9.43429 170.584 24.8777C195.679 40.2802 218.707 62.9813 232.232 79.1957L233.768 77.9146ZM96.0637 12.4855C68.3624 28.8097 60.1761 47.211 62.0383 62.2817C63.886 77.2347 75.6301 88.5908 87.1026 90.7278L87.4688 88.7616C76.8804 86.7893 65.7674 76.1521 64.0232 62.0364C62.2935 48.0385 69.7804 30.2955 97.0791 14.2086L96.0637 12.4855ZM87.1026 90.7278C95.4523 92.2831 102.98 87.0603 108.537 78.882C114.118 70.6688 117.914 59.2218 118.818 47.6204C119.722 36.0237 117.745 24.1378 111.617 15.1183C105.454 6.04633 95.1736 0 79.7857 0V2C94.5764 2 104.207 7.77022 109.963 16.2422C115.755 24.7667 117.706 36.1521 116.824 47.465C115.943 58.7733 112.24 69.8742 106.883 77.758C101.502 85.6768 94.6548 90.1001 87.4688 88.7616L87.1026 90.7278ZM79.7857 0C36.2058 0 13.0122 37.7363 4.54941 62.6373L6.44304 63.2808C14.8343 38.5902 37.5595 2 79.7857 2V0Z" fill="#25A4AD"/>
</svg>
